<svg width="181" height="142" viewBox="0 0 181 142" fill="none" xmlns="http://www.w3.org/2000/svg">
<path d="M99.6154 92.4628H115.524V102.726H99.6154V92.4628Z" fill="#B03F0A"/>
<path d="M94.3638 129.152L112.706 110.037V67.5788L147.092 23.5838L152.643 34.0445L147.15 77.4635L181 46.9171L146.88 0L94.3638 58.161V129.152Z" fill="#FE5E00"/>
<path d="M94.3638 129.152L112.706 110.037V67.5788L147.092 23.5838L152.643 34.0445L147.15 77.4635L181 46.9171L146.88 0L94.3638 58.161V129.152Z" fill="url(#paint0_linear_1753_724)"/>
<path d="M94.3127 113.58L112.872 94.2391V119.896L94.3127 139.237V113.58Z" fill="#D9D9D9"/>
<path d="M94.3127 113.58L112.872 94.2391V119.896L94.3127 139.237V113.58Z" fill="#C43E09"/>
<path d="M93.1764 116.343L115.524 92.4628V118.12L93.1764 142V116.343Z" fill="#D9D9D9"/>
<path d="M93.1764 116.343L115.524 92.4628V118.12L93.1764 142V116.343Z" fill="url(#paint1_linear_1753_724)"/>
<path d="M81.3846 92.4628H65.4765V102.726H81.3846V92.4628Z" fill="#B03F0A"/>
<path d="M86.6362 129.152L68.2935 110.037V67.5788L33.908 23.5838L28.3574 34.0445L33.8495 77.4635L0 46.9171L34.1196 0L86.6362 58.161V129.152Z" fill="#FE5E00"/>
<path d="M86.6362 129.152L68.2935 110.037V67.5788L33.908 23.5838L28.3574 34.0445L33.8495 77.4635L0 46.9171L34.1196 0L86.6362 58.161V129.152Z" fill="url(#paint2_linear_1753_724)"/>
<path d="M86.6873 113.58L68.1278 94.2391V119.896L86.6873 139.237V113.58Z" fill="#D9D9D9"/>
<path d="M86.6873 113.58L68.1278 94.2391V119.896L86.6873 139.237V113.58Z" fill="#C43E09"/>
<path d="M87.8236 116.343L65.4765 92.4628V118.12L87.8236 142V116.343Z" fill="#D9D9D9"/>
<path d="M87.8236 116.343L65.4765 92.4628V118.12L87.8236 142V116.343Z" fill="url(#paint3_linear_1753_724)"/>
<defs>
<linearGradient id="paint0_linear_1753_724" x1="-7.10447" y1="-6.40128" x2="-7.10447" y2="142.456" gradientUnits="userSpaceOnUse">
<stop stop-color="#F6A70C"/>
<stop offset="1" stop-color="#E9380C"/>
</linearGradient>
<linearGradient id="paint1_linear_1753_724" x1="80.0589" y1="93.4496" x2="64.4302" y2="128.508" gradientUnits="userSpaceOnUse">
<stop stop-color="#F6A60D"/>
<stop offset="1" stop-color="#EB470D"/>
</linearGradient>
<linearGradient id="paint2_linear_1753_724" x1="6.06238" y1="-6.38081" x2="6.06238" y2="142" gradientUnits="userSpaceOnUse">
<stop stop-color="#F6A70C"/>
<stop offset="1" stop-color="#E9380C"/>
</linearGradient>
<linearGradient id="paint3_linear_1753_724" x1="80.0589" y1="93.4496" x2="64.4302" y2="128.508" gradientUnits="userSpaceOnUse">
<stop stop-color="#F6A60D"/>
<stop offset="1" stop-color="#EB470D"/>
</linearGradient>
</defs>
</svg>
